/* XPM */
static char *result[] = {
/* columns rows colors chars-per-pixel */
"64 64 176 2 ",
"   c #494B5E",
".  c #564B5C",
"X  c #584E5C",
"o  c #5B515E",
"O  c #6D4046",
"+  c #64454F",
"@  c #6F4449",
"#  c #6F494E",
"$  c #734446",
"%  c #794545",
"&  c #7E4B47",
"*  c #714A4E",
"=  c #76504F",
"-  c #664650",
";  c #654A53",
":  c #694D55",
">  c #704C50",
",  c #7F4F53",
"<  c #6B545A",
"1  c #6D585C",
"2  c #715B5E",
"3  c #454D61",
"4  c #494F62",
"5  c #475063",
"6  c #4A5265",
"7  c #4D5568",
"8  c #4E5969",
"9  c #5B5665",
"0  c #525967",
"q  c #51576B",
"w  c #565C6E",
"e  c #595E6F",
"r  c #5A5F70",
"t  c #635E66",
"y  c #6D5D61",
"u  c #725F69",
"i  c #55616E",
"p  c #58606D",
"a  c #576571",
"s  c #5B6374",
"d  c #5A6974",
"f  c #5E6E79",
"g  c #66636E",
"h  c #716367",
"j  c #746468",
"k  c #696B71",
"l  c #61677B",
"z  c #656A7F",
"x  c #6B6C7E",
"c  c #726E71",
"v  c #63747C",
"b  c #6C737A",
"n  c #737578",
"m  c #854D4A",
"M  c #8C534B",
"N  c #945A4D",
"B  c #945753",
"V  c #9D5F51",
"C  c #916C5F",
"Z  c #9D725C",
"A  c #A46652",
"S  c #AA6757",
"D  c #B26D5A",
"F  c #A47256",
"G  c #A97150",
"H  c #B4745D",
"J  c #B97459",
"K  c #89686C",
"L  c #9F6462",
"P  c #B46F60",
"I  c #AD7A6A",
"U  c #B57362",
"Y  c #B57A65",
"T  c #BD7C68",
"R  c #A47072",
"E  c #A6777B",
"W  c #C2795C",
"Q  c #C97F5E",
"!  c #C47F64",
"~  c #CB825E",
"^  c #D5945E",
"/  c #C28562",
"(  c #CD8967",
")  c #C3846C",
"_  c #D68E60",
"`  c #CF9261",
"'  c #D79063",
"]  c #DB9563",
"[  c #DA966C",
"{  c #CA8D73",
"}  c #CA937B",
"|  c #D0967A",
" . c #D1997F",
".. c #E49D63",
"X. c #EBA464",
"o. c #F1A965",
"O. c #666C81",
"+. c #696E82",
"@. c #667880",
"#. c #6A7D82",
"$. c #6F7489",
"%. c #747E81",
"&. c #71768B",
"*. c #74798C",
"=. c #777C90",
"-. c #80798A",
";. c #937986",
":. c #6D8186",
">. c #6F8389",
",. c #768183",
"<. c #798184",
"1. c #71878B",
"2. c #7B818C",
"3. c #758C8E",
"4. c #7D8A8D",
"5. c #7E8393",
"6. c #768E91",
"7. c #788F92",
"8. c #7F849A",
"9. c #7B9295",
"0. c #7D9598",
"q. c #7F989C",
"w. c #828794",
"e. c #81869C",
"r. c #8A8F9B",
"t. c #978C93",
"y. c #9B8897",
"u. c #82979A",
"i. c #8F909A",
"p. c #819A9D",
"a. c #A4868A",
"s. c #B08687",
"d. c #B18A8A",
"f. c #B99290",
"g. c #868BA0",
"h. c #8B90A5",
"j. c #849EA1",
"k. c #8F94AA",
"l. c #9391A3",
"z. c #969BA7",
"x. c #9095AA",
"c. c #989DAC",
"v. c #979CB1",
"b. c #989DB1",
"n. c #A393A1",
"m. c #9DA2B6",
"M. c #ADA3AE",
"N. c #B0A2AC",
"B. c #A6A6B6",
"V. c #A3A8B1",
"C. c #A5A9BA",
"Z. c #AAAEBD",
"A. c #BBAFB7",
"S. c #ACB1BE",
"D. c #B3B3BC",
"F. c #CA9F8D",
"G. c #D2A48E",
"H. c #CEA391",
"J. c #CFAD9F",
"K. c #D0A491",
"L. c #D1AC9C",
"P. c #D2B6A9",
"I. c #D4BEB2",
"U. c #ADB2C2",
"Y. c #B2B5C4",
"T. c #B6BAC5",
"R. c #B9BEC6",
"E. c #B7BCC8",
"W. c #BCBEC9",
"Q. c #BBC0C9",
"!. c #D7CEC7",
"~. c #C4C9D2",
"^. c #C9CED8",
"/. c #D1D6DD",
"(. c #D7DCE3",
"). c #D8DDE3",
/* pixels */
"3.3.3.0.j.j.j.j.j.j.j.p.3.3.3.6.0.0.0.0.0.0.0.0.0.0.0.0.0.0.0.0.0.0.0.0.0.0.0.0.0.9.3.3.3.9.0.0.0.0.0.0.0.0.0.0.0.0.0.9.3.3.3.3.",
"3.6.p.j.j.j.j.j.j.j.j.j.p.6.3.3.9.0.0.0.0.0.0.0.0.0.0.0.0.0.0.0.0.0.0.0.0.0.0.0.0.3.3.3.9.0.0.0.0.0.0.0.0.0.0.9.0.0.0.0.9.3.3.3.",
"3.p.j.j.j.j.j.j.j.j.j.j.j.p.3.3.9.0.0.0.0.0.0.0.0.0.0.0.0.0.0.0.0.0.0.0.0.0.0.0.0.3.3.3.9.0.0.0.0.0.0.0.0.0.0.0.0.0.0.0.0.3.3.3.",
"p.j.j.j.j.j.j.j.j.j.j.j.j.j.0.3.3.9.0.0.0.0.0.0.0.0.0.0.0.0.0.0.0.0.0.0.0.0.0.0.3.3.3.7.0.0.0.0.0.0.0.0.0.0.0.0.0.0.0.0.0.9.3.3.",
"j.j.j.j.j.j.j.j.j.j.j.j.j.j.j.6.3.3.0.0.0.0.0.0.0.0.0.0.0.0.0.0.0.0.0.0.0.0.0.9.3.3.3.9.0.0.0.0.0.0.0.0.0.0.0.0.0.0.0.0.0.9.3.q.",
"j.j.j.j.j.j.j.j.j.j.j.j.j.j.j.p.3.3.9.0.9.0.0.0.0.0.0.0.0.0.0.0.0.0.0.0.0.0.9.3.3.3.3.3.0.0.0.0.0.0.0.0.0.0.0.0.0.0.0.0.0.9.9.j.",
"j.j.j.j.j.j.j.j.j.j.j.j.j.j.j.j.9.3.3.9.0.0.0.0.0.0.0.0.0.0.0.0.0.0.0.0.0.9.3.3.3.3.3.3.9.0.0.0.0.0.0.0.0.0.0.0.0.0.0.0.0.3.q.j.",
"j.j.j.j.j.j.j.j.j.j.j.j.j.j.j.j.9.3.3.3.9.0.0.0.0.0.0.0.0.0.0.0.0.0.0.0.9.3.3.9.q.q.7.3.3.9.0.0.0.0.0.0.0.0.0.0.0.0.0.0.3.3.0.j.",
"j.j.j.j.j.j.j.j.j.j.j.j.j.j.j.j.0.3.3.3.3.9.0.0.0.0.0.0.0.0.0.0.0.9.0.9.3.3.0.j.j.j.j.q.6.6.0.0.0.0.0.0.0.0.0.0.0.0.0.3.3.3.9.j.",
"j.j.j.j.j.j.j.j.j.j.j.j.j.j.j.j.3.3.3.3.3.3.9.0.0.0.0.0.0.0.0.0.0.0.9.3.6.q.j.j.j.j.j.j.q.6.6.9.0.0.0.0.0.0.0.0.0.0.3.3.3.3.3.q.",
"p.j.j.j.j.j.j.j.j.j.j.j.j.j.j.0.3.3.3.3.3.3.3.3.0.0.0.0.0.0.0.0.0.9.3.3.q.j.j.j.j.j.j.j.j.q.3.6.9.0.0.0.0.0.0.0.0.3.3.3.3.3.3.3.",
"6.j.j.j.j.j.j.j.j.j.j.j.j.j.0.3.3.3.3.3.3.3.3.3.6.9.0.0.0.0.0.0.3.3.3.9.j.j.j.j.j.j.j.j.j.j.0.6.3.0.0.0.0.0.0.0.3.3.3.3.3.3.3.3.",
"3.9.j.j.j.j.j.j.j.j.j.j.p.9.3.3.3.3.3.3.3.3.3.3.3.3.7.0.0.0.7.3.3.3.3.j.j.j.j.j.j.j.j.j.j.j.j.0.3.3.9.0.0.0.0.3.3.3.9.9.9.9.9.3.",
"3.3.9.j.j.j.j.j.j.j.j.p.6.3.3.3.3.3.3.3.3.3.3.3.3.3.3.3.3.3.3.3.3.3.6.j.j.j.j.j.j.j.j.j.j.j.q.0.3.3.3.3.3.3.3.3.9.0.9.0.0.0.0.0.",
"0.3.3.q.j.j.j.j.j.j.p.6.3.3.6.9.0.0.9.3.3.1.1.1.3.1.3.1.3.3.3.3.3.3.3.q.j.q.q.q.q.q.q.q.j.j.j.6.3.3.3.3.3.3.3.6.0.0.0.0.0.0.0.0.",
"0.0.3.3.0.j.j.j.j.q.6.3.3.6.0.0.0.0.9.3.#.#.#.#.#.#.#.:.1.3.3.3.3.3.3.3.9.3.6.3.6.3.7.0.q.j.0.3.3.3.3.3.3.3.9.0.0.0.0.0.0.0.0.0.",
"0.0.0.6.3.6.7.7.3.3.3.3.9.0.0.0.0.9.9.1.v d a a a a d v :.1.3.3.3.3.1.:.@.O.f O.f f v :.6.6.3.3.3.3.3.3.3.9.0.0.0.0.9.q.9.q.9.q.",
"0.0.0.9.3.3.3.3.3.3.3.9.0.0.0.0.0.7.1.@.d 6 5 5 5 6 7 a :.1.3.6.3.3.1.:.a 8 5 6 6 6 8 a @.:.1.3.3.3.3.3.9.0.0.0.0.0.0.0.q.9.0.9.",
"0.0.0.0.0.3.3.3.3.3.9.0.0.0.0.0.9.1.v a 8 6 5 5 3 3 6 a v 1.6.7.9.9.3.@.a 5 3 3 6 6 6 7 i v #.1.3.3.3.9.0.0.0.0.0.0.0.0.0.0.0.0.",
"0.0.0.0.q.0.3.3.3.3.9.0.0.0.0.7.1.v d 6 6 8 s a q 3 5 a :.7.0.0.0.9.9.>.a 5 3 3 s r 8 5 5 i v #.1.3.9.0.0.0.0.0.0.0.0.0.0.0.0.0.",
"0.0.0.0.9.0.9.3.3.3.9.0.0.0.9.3.@.s 7 3 7 O.$.$.s 4 6 s :.9.0.0.0.0.9.>.d 6 3 O.$.=.O.7 4 7 i v #.6.0.0.0.0.0.0.0.0.0.0.0.0.0.0.",
"0.0.0.0.q.0.0.0.3.3.3.0.0.9.9.1.O.7 3 7 f *.g.=.l 7 6 d 1.9.0.0.0.0.9.>.d 6 7 O.=.8.$.O.q 4 7 a #.9.0.0.0.0.0.0.0.0.0.0.0.0.0.0.",
"0.0.0.0.0.0.0.0.9.3.3.6.0.9.6.:.a 5 6 O.=.g.h.=.O.7 6 d :.9.0.0.0.0.9.>.d 6 7 O.8.h.8.=.s 6 6 i :.7.9.0.0.0.0.0.0.0.0.0.0.0.0.0.",
"0.0.0.0.0.0.0.0.0.3.3.3.9.9.1.@.i 5 q +.=.k.k.g.O.7 6 d :.9.9.u.0.9.9.>.d 6 7 +.8.k.k.8.z 7 5 i v 3.9.9.0.0.0.0.0.0.0.0.0.0.0.0.",
"0.0.0.0.0.0.0.0.0.9.3.3.3.1.@.a 8 7 r &.h.b.b.g.+.7 6 d :.7.9.9.9.9.7.%.s 6 7 +.g.b.b.h.*.s 7 7 a v 1.9.0.0.0.0.0.0.0.0.0.0.0.0.",
"0.0.0.0.0.0.0.0.0.7.3.3.1.#.d 8 7 f 5.x.C.U.Z.c.*.q 6 e v n <.<.,.1.%.b i 6 q *.c.Z.U.C.z.w.k 6 8 f 1.9.0.0.0.0.0.0.0.0.0.0.0.0.",
"0.0.0.0.0.0.0.0.0.9.3.3.3.#.a 6 0 2.V.Q.~.^.~.Z.w.w   o h h j h j j h t 9   w w.S.~.^.~.R.V.=.0 8 d :.9.0.0.0.0.0.0.0.0.0.0.0.0.",
"0.0.0.0.0.0.0.0.0.7.3.3.1.#.a 5 e r.E./.(.)./.R.i.e   . ; # * * # * # ; .   e r.R./.(.)./.T.i.e 6 d 1.7.0.0.0.0.0.0.0.0.0.0.0.0.",
"0.0.0.0.0.0.0.0.9.3.3.3.3.#.a 6 r r.R./.(.)./.R.i.g o < = = & & & & = = : o g i.W./.).)./.R.r.p 6 d >.0.0.9.q.0.0.0.0.0.0.0.0.0.",
"0.0.0.0.0.0.0.0.3.3.3.3.1.#.a 6 w w.Z.~.^.^.~.D.t.K C Z F G G G G G G F Z C K t.D.~.^.^.~.S.w.w 6 d >.6.0.0.0.0.0.0.0.0.0.0.0.0.",
"0.0.0.0.0.0.0.7.3.3.3.3.1.#.i 5 q *.c.U.Y.Y.Y.M.a.I / ` ^ ^ ^ ^ ^ ^ ^ ^ ` / I a.B.T.Y.Y.S.c.*.8 7 a >.0.0.0.0.0.0.0.0.0.0.0.0.0.",
"0.0.0.0.0.0.3.3.3.3.3.3.3.#.a 5 7 +.r.v.m.C.Z.M.d.) ] X.X.o.X.o.o.o.X.o.X.] ) d.n.U.C.m.v.r.+.7 5 a :.9.0.0.0.0.0.0.0.0.0.0.0.0.",
"0.0.0.0.0.6.3.3.3.3.3.3.1.#.a 5 6 O.e.x.v.U.Y.Z.f.) ] X.o.X.o.o.o.o.o.o.X.] ) f.A.T.Z.b.x.e.O.7 4 a #.7.0.0.0.0.0.0.0.0.0.0.0.0.",
"0.0.0.0.9.3.3.6.3.3.3.3.1.#.a 5 6 s =.x.U.T.W.P.f.) ' ..X.X.X.X...X.X.X..._ ) f.A.W.T.B.x.=.s 6 4 a #.1.0.0.0.0.0.0.0.0.0.0.0.0.",
"0.0.0.7.3.3.3.3.3.3.3.3.3.:.d 7 4 q +.r.C.T.T.N.d.T ~ ' [ [ ] [ [ [ ] ^ _ ~ T s.N.T.E.C.h.O.q 4 7 d #.1.3.0.0.0.0.0.0.0.0.0.0.0.",
"0.0.7.6.1.6.3.3.3.3.7.0.0.1.v a 7 4 r -.b.Z.B.n.E Y ~ } G.H. .| G.G.| ( ~ Q Y E n.B.Z.V.2.e 4 7 i v :.1.3.3.0.0.0.0.0.0.0.0.0.0.",
"0.6.3.3.3.3.3.3.3.0.0.0.0.7.1.@.s 4 7 l =.r.l.y.E U ) H.I.I.L.L.I.I.G.( ~ W U E y.l.h.-.d 8 6 a v #.1.3.3.3.3.9.0.0.0.0.0.0.0.0.",
"3.3.3.3.3.3.3.3.7.0.0.0.0.9.9.>.@.a 7 6 r +.-.;.R U ) J.!.!.P.P.!.!.J.{ Q W P R ;.=.x w 7 6 i v 1.0.q.0.3.3.3.3.7.0.0.0.0.0.0.9.",
"3.3.3.3.3.3.3.3.0.0.0.0.0.0.0.7.1.@.a 6 4 9 u K L P ) J.!.!.P.P.!.!.J.{ ! W D L K u 9 6 6 i v 7.q.j.j.j.q.6.3.3.3.3.9.0.0.0.6.3.",
"3.3.3.3.3.3.3.0.0.0.0.0.0.0.0.0.9.1.v a 7 . : , B S T H.I.I.L.L.I.I.K.( Q J S B m : . 7 i v 7.q.q.j.j.j.j.q.6.3.3.3.3.3.3.3.3.3.",
"3.3.3.3.3.3.9.0.0.0.0.0.0.0.0.0.0.7.>.@.a X - $ & V H } F.F.} } K.F.{ / W J V m % + X e v 6.q.j.j.j.j.j.j.j.q.3.3.3.3.3.3.3.3.3.",
"3.3.3.3.3.7.0.0.0.0.0.0.0.0.0.0.0.0.0.>.@.g : @ % M G G Y Y Y H T Y U D G A M % @ : t v 6.u.j.j.j.j.j.j.j.j.j.j.6.3.3.3.3.3.3.3.",
"3.3.3.3.3.9.0.0.0.0.0.0.0.0.0.0.0.0.0.7.1.n y > O & M N N N N N N N N N N M & $ * y b 7.u.j.j.j.j.j.j.j.j.j.j.j.q.3.3.3.3.3.3.3.",
"3.3.6.3.7.0.0.0.0.0.0.0.0.0.0.0.0.0.0.0.9.2.c y = $ $ & % % % % % % % % % $ @ * 2 c 7.u.j.j.j.j.j.j.j.j.j.j.j.j.j.j.3.3.3.3.3.3.",
"3.3.3.3.9.0.0.0.0.0.0.0.0.0.0.0.0.0.0.0.0.7.<.c 2 = @ @ @ O O @ $ * @ O O @ # 1 c w.u.j.j.j.j.j.j.j.j.j.j.j.j.j.j.j.0.3.3.3.3.3.",
"3.3.3.3.7.0.0.0.0.0.0.0.0.0.0.0.0.0.0.0.0.9.3.n c h y 1 ; + + ; 1 1 : + + ; h c <.u.j.j.j.j.j.j.j.j.j.j.j.j.j.j.j.j.q.3.3.3.3.3.",
"3.3.3.3.3.9.0.0.0.0.0.0.0.0.0.0.0.0.0.0.0.4.3.1.,.n n k t o o t k k 9 o o t k n 9.p.j.j.j.j.j.j.j.j.j.j.j.j.j.j.j.j.j.6.3.3.3.3.",
"3.3.3.3.3.3.9.0.0.0.0.0.0.0.0.0.0.0.0.0.9.3.3.3.3.3.1.#.v i 0 a v b p 0 p v :.1.7.j.j.j.j.j.j.j.j.j.j.j.j.j.j.j.j.j.q.3.3.6.3.3.",
"3.3.3.3.3.3.3.0.0.0.0.0.0.0.0.0.0.0.0.9.3.3.3.3.3.3.3.3.#.v a d v #.d a v #.3.3.3.q.j.j.j.j.j.j.j.j.j.j.j.j.j.j.j.j.9.3.3.3.3.3.",
"3.3.3.3.3.3.3.3.9.0.0.0.0.0.0.0.0.0.9.3.3.3.3.3.3.3.3.3.1.#.v v :.#.v v #.1.3.3.3.7.q.j.j.j.j.j.j.j.j.j.j.j.j.j.j.0.3.3.3.6.7.3.",
"9.3.3.6.3.3.3.3.3.3.0.0.0.0.0.0.0.0.3.3.3.3.3.3.3.3.3.3.3.1.:.#.1.1.#.:.1.3.3.3.3.3.3.j.j.j.j.j.j.j.j.j.j.j.j.j.0.3.3.3.q.j.q.j.",
"j.q.3.3.3.3.3.3.3.3.3.0.0.0.0.0.0.3.3.3.3.3.3.3.3.3.3.9.9.9.9.3.3.3.3.3.3.3.3.7.3.3.3.7.j.j.j.j.j.j.j.j.j.j.j.0.3.3.3.0.j.j.j.j.",
"j.j.q.3.3.3.3.3.3.3.3.3.7.9.9.9.3.3.3.3.3.3.3.3.3.0.0.0.0.0.0.0.3.3.3.3.3.3.3.3.3.3.3.3.7.q.j.j.j.j.j.j.j.j.0.3.3.3.q.j.j.j.j.j.",
"j.j.j.0.3.3.3.3.3.3.3.3.3.3.3.3.3.3.3.3.3.3.3.3.9.0.0.0.0.0.0.0.0.3.3.3.3.3.3.3.3.3.3.3.3.7.q.j.j.j.j.j.j.0.3.3.3.q.j.j.j.j.j.j.",
"j.j.j.j.9.3.3.3.3.3.3.3.3.3.3.3.3.3.3.3.3.3.3.0.0.0.0.0.0.0.0.0.0.0.9.3.3.3.3.3.3.3.3.3.3.3.7.q.j.j.j.j.9.3.3.3.0.q.j.j.j.j.j.j.",
"j.j.j.j.q.3.3.3.3.3.3.3.3.3.3.3.3.3.3.3.3.9.0.0.0.0.0.0.0.0.0.0.0.0.0.9.3.3.3.3.3.3.3.3.3.3.3.3.9.0.9.3.3.3.3.3.q.j.j.j.j.j.j.j.",
"j.j.j.j.p.3.3.3.3.3.3.3.3.3.3.3.3.3.3.3.9.0.0.0.0.0.0.0.0.0.0.0.0.0.0.0.9.3.3.3.3.3.3.3.3.3.3.3.3.3.3.3.3.3.3.3.q.j.j.j.j.j.j.j.",
"j.j.j.j.0.3.3.3.3.3.3.3.3.3.3.3.3.3.3.3.0.0.0.0.0.0.0.0.0.0.0.0.0.0.0.0.0.9.3.3.3.3.3.3.3.3.3.3.3.3.3.3.3.3.3.3.q.j.j.j.j.j.j.j.",
"j.j.j.0.3.3.3.3.3.3.3.3.3.3.3.3.3.3.3.0.0.0.0.0.0.0.0.0.0.0.0.0.0.0.0.0.0.0.3.3.3.3.3.3.3.3.3.3.3.3.3.3.3.3.3.3.3.q.j.j.j.j.j.j.",
"j.j.0.3.3.3.3.3.3.3.3.3.3.3.3.3.3.3.0.0.0.0.0.0.0.0.0.0.0.0.0.0.0.0.0.0.0.0.0.3.3.3.3.3.3.3.6.3.3.3.9.0.0.0.9.3.3.3.0.j.j.j.j.j.",
"j.9.3.3.3.3.3.3.3.3.3.3.3.3.3.3.3.0.0.0.0.0.0.0.0.0.0.0.0.0.0.0.0.0.0.0.0.0.0.0.3.3.3.3.3.3.3.3.3.9.0.0.0.0.0.9.3.3.3.q.j.j.j.j.",
"9.3.3.3.3.3.6.3.3.3.3.3.3.3.3.3.3.0.0.0.0.0.0.0.0.0.0.0.0.0.0.0.0.0.0.0.0.0.0.0.9.3.3.3.3.3.3.3.9.0.0.0.0.0.0.0.0.3.3.3.0.j.j.j.",
"3.3.3.3.3.6.0.p.p.0.3.3.3.3.3.3.0.0.0.0.0.0.0.0.0.0.0.0.0.0.0.0.0.0.0.0.0.0.0.0.0.3.3.3.3.3.3.9.0.0.0.0.0.0.0.0.0.0.3.3.3.3.7.3.",
"3.3.3.3.7.j.j.j.j.j.j.3.3.3.3.7.0.0.0.0.0.0.0.0.0.0.0.0.0.0.0.0.0.0.0.0.0.0.0.0.0.7.3.3.3.3.9.0.0.0.0.0.0.0.0.0.0.0.0.3.3.3.3.3."
};
