/* XPM */
static char *result[] = {
/* columns rows colors chars-per-pixel */
"64 64 184 2 ",
"   c #444A5F",
".  c #4C495B",
"X  c #5B4654",
"o  c #5C4855",
"O  c #5E4B5A",
"+  c #6F4044",
"@  c #6A434B",
"#  c #724246",
"$  c #7E4A47",
"%  c #714549",
"&  c #73484E",
"*  c #7D4B4A",
"=  c #6B4A53",
"-  c #754B52",
";  c #784C50",
":  c #6E5056",
">  c #6D565B",
",  c #73545C",
"<  c #72585C",
"1  c #464D61",
"2  c #484F63",
"3  c #504E60",
"4  c #475063",
"5  c #4B5466",
"6  c #4E5669",
"7  c #4E5969",
"8  c #535464",
"9  c #52576C",
"0  c #525C6C",
"q  c #555B70",
"w  c #5D5F71",
"e  c #645A64",
"r  c #735B68",
"t  c #675F70",
"y  c #56636F",
"u  c #5C646E",
"i  c #566471",
"p  c #5B6473",
"a  c #5C6B75",
"s  c #5F6579",
"d  c #5F6F79",
"f  c #6D676D",
"g  c #606873",
"h  c #61667B",
"j  c #666B7C",
"k  c #7B6775",
"l  c #62737C",
"z  c #6B767C",
"x  c #737173",
"c  c #777679",
"v  c #834D49",
"b  c #855248",
"n  c #8A5549",
"m  c #965B4E",
"M  c #9C5F4F",
"N  c #825254",
"B  c #8E5D5D",
"V  c #9C5D55",
"C  c #9E6251",
"Z  c #A96955",
"A  c #B36D5A",
"S  c #AC7252",
"D  c #B67B54",
"F  c #B7725C",
"G  c #BA755C",
"H  c #BB7B5D",
"J  c #85626C",
"K  c #826C77",
"L  c #966C71",
"P  c #8A7278",
"I  c #90787D",
"U  c #A56761",
"Y  c #A8716D",
"T  c #BA7563",
"R  c #BC7D66",
"E  c #AF7A73",
"W  c #B27D79",
"Q  c #C47B5D",
"!  c #C07D65",
"~  c #BE846E",
"^  c #B5827D",
"/  c #CC835F",
"(  c #D08E5C",
")  c #DC9A5F",
"_  c #CA8562",
"`  c #C98565",
"'  c #D38C64",
"]  c #DA9262",
"[  c #DA956A",
"{  c #CD8C73",
"}  c #C88C78",
"|  c #DB9870",
" . c #D2947A",
".. c #E59E63",
"X. c #EEA665",
"o. c #EFA865",
"O. c #686D82",
"+. c #6E7383",
"@. c #677981",
"#. c #697C83",
"$. c #6E7388",
"%. c #707585",
"&. c #767B87",
"*. c #73768B",
"=. c #757A8C",
"-. c #7B7A8C",
";. c #757A90",
":. c #807688",
">. c #867D8F",
",. c #957B83",
"<. c #9F7F88",
"1. c #897F90",
"2. c #6C8185",
"3. c #6F8489",
"4. c #748386",
"5. c #71868B",
"6. c #7D828E",
"7. c #758C8E",
"8. c #7B8C8F",
"9. c #7B8094",
"0. c #768E91",
"q. c #788F92",
"w. c #7B9295",
"e. c #7D9598",
"r. c #7F989B",
"t. c #96858F",
"y. c #82869C",
"u. c #8E8798",
"i. c #868A9E",
"p. c #8A8B9E",
"a. c #9F8490",
"s. c #8B909D",
"d. c #819B9E",
"f. c #9A929D",
"g. c #B78683",
"h. c #A68C97",
"j. c #AD959D",
"k. c #8A8DA2",
"l. c #8B90A6",
"z. c #849EA1",
"x. c #9296A5",
"c. c #9A92A2",
"v. c #979CA7",
"b. c #969BAA",
"n. c #979CB1",
"m. c #9A9FB3",
"M. c #B09AA2",
"N. c #9CA1AE",
"B. c #9FA3B7",
"V. c #A9A3AA",
"C. c #BAA5AC",
"Z. c #A4A3B2",
"A. c #AAA7B3",
"S. c #A7ACB5",
"D. c #A5A8B8",
"F. c #A4A8B9",
"G. c #AAAEBC",
"H. c #B2ACB2",
"J. c #ACB0BE",
"K. c #B4B1BE",
"L. c #CE9985",
"P. c #D39A83",
"I. c #D9A793",
"U. c #D6A999",
"Y. c #DAAC9D",
"T. c #D9AFA0",
"R. c #DCB4A6",
"E. c #DFBAAE",
"W. c #E0BCB0",
"Q. c #E2C1B6",
"!. c #E3C5BB",
"~. c #ADB1C1",
"^. c #B7B8C3",
"/. c #BBBDC6",
"(. c #B9BDC9",
"). c #BEC0CB",
"_. c #C1C2CB",
"`. c #C5C9D3",
"'. c #CACED5",
"]. c #D3D8DF",
"[. c #E5C9C0",
"{. c #EAD4CD",
"}. c #EBD7D1",
"|. c #D5D9E0",
/* pixels */
"7.7.7.e.z.z.z.z.z.z.z.d.7.7.7.0.e.e.e.e.e.e.e.e.e.e.e.e.e.e.e.e.e.e.e.e.e.e.e.e.e.q.7.7.7.w.e.e.e.e.e.e.e.e.e.e.e.e.e.w.7.7.7.7.",
"7.0.d.z.z.z.z.z.z.z.z.z.d.7.7.7.w.e.e.e.e.e.e.e.e.e.e.e.e.e.e.e.e.e.e.e.e.e.e.e.e.7.7.7.q.e.e.e.e.e.e.e.e.e.e.e.e.e.e.e.q.7.7.7.",
"7.d.z.z.z.z.z.z.z.z.z.z.z.d.7.7.w.e.e.e.e.e.e.e.e.e.e.e.e.e.e.e.e.e.e.e.e.e.e.e.e.7.7.7.e.e.e.e.e.e.e.e.e.e.e.e.e.e.e.e.e.7.7.7.",
"d.z.z.z.z.z.z.z.z.z.z.z.z.z.e.7.7.w.e.e.e.e.e.e.e.e.e.e.e.e.e.e.e.e.e.e.e.e.e.e.q.7.7.q.e.e.e.e.e.e.e.e.e.e.e.e.e.e.e.e.e.w.7.7.",
"z.z.z.z.z.z.z.z.z.z.z.z.z.z.z.0.7.0.e.e.e.e.e.e.e.e.e.e.e.e.e.e.e.e.e.e.w.e.e.w.7.7.7.q.e.e.e.e.e.e.e.e.e.e.e.e.e.e.e.e.e.e.7.d.",
"z.z.z.z.z.z.z.z.z.z.z.z.z.z.z.d.7.7.w.w.e.e.w.e.e.e.e.e.e.e.e.e.e.e.e.e.e.e.w.7.7.7.7.7.e.e.e.e.e.e.e.e.e.e.e.e.e.e.e.e.e.q.w.z.",
"z.z.z.z.z.z.z.z.z.z.z.z.z.z.z.z.w.7.7.w.e.e.e.e.e.e.e.e.e.e.e.e.e.e.e.e.e.w.7.7.7.7.7.7.q.e.e.e.e.e.e.e.e.e.e.e.e.e.e.e.e.7.r.z.",
"z.z.z.z.z.z.z.z.z.z.z.z.z.z.z.z.w.7.7.7.w.e.e.e.e.e.e.e.e.e.e.e.e.e.e.e.w.7.7.w.r.r.q.7.7.e.e.e.e.e.e.e.e.e.e.e.e.e.e.e.7.7.e.z.",
"z.z.z.z.z.z.z.z.z.z.z.z.z.z.z.z.w.7.7.7.7.w.e.e.e.e.e.e.e.e.e.e.e.e.e.w.7.7.e.z.z.z.z.d.7.0.e.e.e.e.e.e.e.e.e.e.e.e.e.7.7.7.w.z.",
"z.z.z.z.z.z.z.z.z.z.z.z.z.z.z.z.8.7.7.7.7.7.q.e.e.e.e.e.e.e.e.e.e.e.w.7.0.r.z.z.z.z.z.z.d.7.7.e.e.e.e.e.e.e.e.e.e.w.7.7.7.7.7.r.",
"z.z.z.z.z.z.z.z.z.z.z.z.z.z.z.w.7.7.7.7.7.7.7.0.w.e.e.e.e.e.e.e.e.q.7.7.e.z.z.z.z.z.z.z.z.r.7.7.w.e.e.e.e.e.e.e.e.7.7.7.7.7.7.7.",
"0.z.z.z.z.z.z.z.z.z.z.z.z.z.w.7.7.7.7.7.7.7.7.7.7.e.e.e.e.e.e.e.q.7.7.w.z.z.z.z.z.z.z.z.z.z.r.7.7.w.e.e.e.e.e.e.7.7.7.7.7.7.7.7.",
"7.w.z.z.z.z.z.z.z.z.z.z.d.w.7.7.7.7.7.7.7.7.7.7.7.7.w.w.e.e.w.7.7.7.0.z.z.z.z.z.z.z.z.z.z.z.z.w.7.7.w.e.e.e.e.7.7.7.w.w.e.w.7.7.",
"7.7.w.z.z.z.z.z.z.z.z.d.0.0.7.7.7.7.7.7.7.7.7.7.7.7.7.7.7.7.7.7.7.7.q.z.z.z.z.z.z.z.z.z.z.z.z.e.7.7.7.7.7.7.7.7.q.e.e.e.e.e.e.e.",
"w.7.7.e.z.z.z.z.z.z.d.0.7.7.0.w.e.e.w.7.7.7.7.7.7.7.7.7.7.7.7.7.7.7.7.e.z.z.z.z.z.z.z.z.z.z.z.0.7.7.7.7.7.7.7.w.e.e.e.e.e.e.e.e.",
"e.e.7.0.e.z.z.z.z.e.7.7.7.w.e.w.e.e.e.w.7.7.7.7.7.7.7.7.7.7.7.7.7.7.7.w.z.z.z.z.z.z.z.z.z.z.w.7.7.7.7.7.7.7.w.e.e.e.e.e.e.e.e.e.",
"e.e.w.0.0.0.q.q.7.7.7.7.w.e.e.e.e.e.e.e.q.7.7.7.7.7.7.7.7.7.7.7.7.7.7.7.e.d.z.z.z.z.z.z.z.w.7.7.7.7.7.7.7.w.e.e.e.e.e.e.e.e.e.e.",
"e.e.e.e.7.7.7.7.7.7.7.w.e.e.e.e.w.e.e.e.e.q.7.7.7.7.7.7.7.7.7.7.7.7.7.7.7.e.z.d.z.z.z.z.e.7.7.7.7.7.7.7.q.e.e.e.e.e.e.e.e.e.e.e.",
"e.e.e.e.e.7.7.7.7.7.q.e.e.e.e.e.e.e.e.e.e.w.7.0.7.7.7.0.7.7.8.q.w.w.8.7.7.7.w.d.z.z.z.e.7.7.7.7.7.7.7.w.e.e.e.e.e.e.e.e.e.e.e.e.",
"e.e.e.e.e.e.7.7.7.7.w.e.e.e.e.e.e.e.e.e.e.w.0.7.7.7.7.8.7.w.w.e.e.w.e.w.7.7.7.w.e.d.q.7.7.7.7.7.7.7.w.e.e.e.e.e.e.e.e.e.e.e.e.e.",
"e.e.e.e.e.e.w.q.7.7.w.e.e.e.e.e.e.e.w.w.q.8.7.4.4.4.4.4.8.8.8.8.7.8.8.8.7.4.4.4.4.4.4.3.5.7.7.7.7.q.e.e.e.e.e.e.e.e.e.e.e.e.e.e.",
"e.e.e.e.e.e.e.w.7.7.7.e.e.e.e.e.e.e.0.7.2.z c x x x x c c c c c c c c c c c x x x x z z 2.5.7.7.q.e.e.e.e.e.e.e.e.e.e.e.e.e.e.e.",
"e.e.e.e.e.e.e.e.w.7.7.q.e.w.e.e.w.w.7.l u f > > < < < < < < < < < < < < < < < > > > e y l 2.5.7.e.e.e.e.e.e.e.e.e.e.e.e.e.e.e.e.",
"e.e.e.e.e.e.e.e.e.q.7.0.w.e.e.w.w.5.z a 5 O @ % % % % % % % % % % % % $ % % % % % @ o 8 i l 2.8.e.e.e.e.e.e.e.e.e.e.e.e.e.e.e.e.",
"e.e.e.e.e.e.e.e.e.w.7.7.7.w.w.q.5.@.i 7 . O : - & * b n n n n n n n b b b $ $ % - : O 2 8 y l 5.q.e.e.e.e.e.e.e.e.e.e.e.e.e.e.e.",
"e.e.e.e.e.e.e.e.e.w.7.7.7.7.q.7.@.a 7 4 6 f k J B Z S D D D D D / D S / / S S n J k t 9 2 7 i #.7.q.e.e.e.e.e.e.e.e.e.e.e.e.e.e.",
"e.e.e.e.e.e.e.e.e.w.7.7.7.7.2.l y 7 7 0 j -.1.,.Y H ( ) ) ) ) ) ( ) ) ) ( ( ~ S ,.>.-.j 0 6 7 i z 7.q.e.e.e.e.e.e.e.e.e.e.e.e.e.",
"e.e.e.e.e.e.e.e.e.0.7.7.4.2.l y 4 2 w &.p.x.c.a.E _ ] X.o.o.o.o.o.o.o.o.X.) ~ ^ a.c.x.s.&.w 2 5 a l 7.q.w.e.e.e.e.e.e.e.e.e.e.e.",
"e.e.e.e.e.e.e.e.w.7.7.7.2.l y 5 4 6 +.x.S.J.Z.h.^ / ] o.o.o.o.o.o.o.o.o.o.) ( ^ h.Z.J.G.x.+.6 2 7 a #.7.e.e.e.e.e.e.e.e.e.e.e.e.",
"e.e.e.e.e.e.e.w.7.7.7.7.2.a 7 4 6 g -.B.^.(.K.M.^ _ ] X.X.X...X.....X...) ) _ ^ M.K./.^.N.;.s 6 4 7 l 7.w.e.e.e.e.e.e.e.e.e.e.e.",
"e.e.e.e.e.e.e.0.7.7.7.7.2.a 5 4 0 $.k.m.~.).(.C.g.~ / [ | [ [ [ | | [ ] ( / H g.C./.(.J.B.y.$.0 4 7 l 5.w.e.e.e.e.e.e.e.e.e.e.w.",
"e.e.e.e.e.e.q.7.7.7.7.7.2.a 5 4 w ;.k.n.B.~.^.C.g.T `  .I.I.L.P.I.I.P.' / / T g.C.^.~.F.n.l.;.i 4 5 d 5.w.e.e.e.e.e.e.e.e.e.e.e.",
"e.e.e.e.e.0.7.7.7.7.7.7.2.a 5 4 s ;.b.m.B.D.A.j.W T } Y.!.Q.Y.Y.Q.!.Y.{ / Q T W j.V.D.B.B.x.9.s 4 5 a 5.w.e.e.e.e.e.e.e.e.e.e.e.",
"e.e.e.e.w.7.7.7.7.7.7.7.2.a 5 5 j k.F.~.~.Z.c.<.Y T } E.{.{.E.W.{.{.R. ./ Q F Y a.c.Z.G.~.F.s.h 5 5 a 2.w.w.e.e.e.e.e.e.e.e.e.e.",
"e.e.e.0.7.7.7.7.7.7.0.7.2.a 5 5 $.N.(.`.(.A.a.L U F } E.}.{.E.W.{.}.E. .Q Q F U L t.A._.`.(.B.+.5 7 a 2.7.w.e.e.e.e.e.e.e.e.e.e.",
"e.e.0.7.0.7.7.7.7.7.w.w.5.O.7 6 &.S.'.|.'.H.,.B V A } T.[.!.T.T.!.!.Y.{ ! Q A V B ,.H.'.].`.S.&.7 5 a 2.7.7.w.e.e.e.e.e.e.e.e.e.",
"e.0.7.7.7.7.7.7.7.w.e.w.5.@.5 7 &.S.'.|.'.H.I N n Z R L.U.U.L.P.U.U.P.` Q Q C n N I H.'.].'.S.&.7 4 a #.5.7.7.w.e.e.e.e.e.e.e.e.",
"7.7.7.7.7.7.7.7.0.w.e.w.5.d 7 4 z v./.`._.V.P ; v m A R ~ ~ R ~ ~ ` T F G S m v * P V._.`.(.v.+.7 7 l 5.7.7.7.7.w.e.e.e.e.e.e.w.",
"7.7.7.7.7.7.0.0.e.e.e.w.7.O.7 4 p 6.v.S.D.f.K - * b m V C C C C C C M M V m v $ & K f.S.S.v.9.s 4 0 l w.r.0.7.7.7.7.w.e.e.w.w.7.",
"7.7.7.7.7.7.0.w.e.e.e.w.0.@.i 5 7 p %.i.x.u.K , & # # * $ v $ $ * * $ v v v # % r K u.x.i.$.i 6 6 a 3.e.d.d.7.7.7.7.7.7.7.7.7.7.",
"7.7.7.7.7.7.w.e.e.e.e.w.0.5.@.i 5 4 w ;.k.k.>.k , # # + + + + + # @ # # + + # , k >.k.k.;.q 5 6 a #.0.r.z.z.d.0.7.7.7.7.7.7.7.7.",
"7.7.7.7.7.0.e.e.e.e.e.e.w.q.3.a 7 2 q $.y.k.p.:.r @ @ @ @ @ @ & : : = @ @ @ @ r :.k.l.1.$.q 4 9 l 7.r.z.z.z.z.r.7.7.7.7.7.0.7.7.",
"7.7.0.7.7.e.e.e.e.e.e.e.e.w.0.O.0 1 6 h =.y.p.-.f o o o X X o e f f e o X X o f ;.k.k.$.O.4 4 q @.w.d.z.z.z.z.z.d.0.7.7.7.7.7.7.",
"7.7.7.7.0.e.e.e.e.e.e.e.e.w.0.@.y 7 2 6 h ;.;.*.u 3 . 3 8 8 8 p +.z g 3 . . 3 u ;.;.;.w 9 4 7 i #.w.d.z.z.z.z.z.z.r.7.7.7.7.7.7.",
"7.7.7.7.w.e.e.e.e.e.e.e.e.e.q.3.l i 6 1 6 h O.h 7   4 7 y a y d 2.#.a 4 1   1 7 O.O.s 6 2 6 a #.0.r.r.z.z.z.z.z.z.z.w.7.7.7.7.7.",
"7.7.7.7.0.e.e.e.e.e.e.e.e.e.e.0.3.l i 6 2 6 9 6 4 1 5 y l l a d z #.a y 4     4 6 9 6 6 6 i #.0.r.r.z.z.z.z.z.z.z.z.d.7.7.7.7.7.",
"7.7.7.7.7.w.e.e.e.e.e.e.e.e.e.e.w.3.@.i 6 1 2 2 1 1 5 a @.2.@.@.3.3.l d 7 1     1 2 2 7 a @.0.r.z.z.z.z.z.z.z.z.z.z.z.0.7.7.7.0.",
"7.7.7.7.7.7.w.e.e.e.e.e.e.e.e.e.w.q.3.l y 6 6 6 5 7 y a 2.4.3.2.5.5.3.l a y 7 7 6 6 q i @.0.r.r.z.z.z.z.z.z.z.z.z.z.r.7.7.7.7.7.",
"7.7.7.7.7.7.7.e.r.e.e.e.e.e.e.e.e.w.q.2.l d a a a d d @.2.7.7.7.7.7.7.2.#.d a a d l @.2.w.r.z.z.z.z.z.z.z.z.z.z.z.z.q.0.7.7.7.7.",
"7.7.7.7.7.7.7.7.q.e.e.e.e.e.e.e.e.e.w.7.2.2.2.2.2.2.2.3.7.7.7.7.7.7.7.5.5.2.2.2.2.2.q.r.r.z.z.z.z.z.z.z.z.z.z.z.r.e.7.7.7.0.q.0.",
"w.7.7.7.7.7.7.7.7.q.e.e.e.e.e.e.e.e.7.7.7.7.7.7.7.7.7.7.7.7.7.7.7.7.7.7.7.7.7.7.0.7.7.r.r.r.z.z.z.z.z.z.z.z.z.r.r.7.7.7.r.z.r.r.",
"r.r.7.7.7.7.7.7.7.7.7.e.e.e.e.e.e.7.7.7.7.7.7.7.7.7.0.w.w.w.w.7.7.7.7.7.7.7.7.7.7.7.7.w.z.z.z.z.z.z.z.z.z.z.z.e.q.7.7.r.z.z.z.z.",
"z.z.r.7.7.7.7.7.7.7.7.7.7.q.w.w.7.7.7.7.7.7.7.7.7.w.e.e.e.e.e.e.7.7.7.7.7.7.7.7.7.7.7.7.w.r.r.z.z.z.z.z.z.z.r.7.0.0.r.z.z.z.z.z.",
"z.z.z.r.7.7.7.7.7.7.7.7.0.0.7.7.7.7.7.7.7.7.7.7.w.e.e.e.e.e.e.e.e.7.7.7.7.7.7.7.7.7.7.7.7.7.r.z.z.z.z.z.z.r.7.7.0.r.z.z.z.z.z.z.",
"z.z.z.z.e.7.7.7.7.7.7.7.7.7.7.7.7.7.7.7.7.7.q.e.e.e.e.e.e.e.e.e.e.e.w.7.7.7.7.7.7.7.7.7.7.7.w.r.z.r.z.r.e.7.7.7.e.r.z.z.z.z.z.z.",
"z.z.z.z.r.7.7.7.7.7.7.7.7.7.7.7.7.7.7.7.7.q.e.e.e.e.e.e.e.e.e.e.e.e.e.w.7.7.7.7.7.7.7.7.7.7.7.7.e.e.e.q.0.7.7.7.r.r.z.z.z.z.z.z.",
"z.z.z.z.r.7.7.7.7.7.7.7.7.7.7.7.7.7.7.7.q.e.e.e.e.e.e.e.e.e.e.e.w.e.e.e.w.7.7.7.7.7.7.7.7.7.7.7.7.7.7.7.7.7.7.7.r.z.z.z.z.z.z.z.",
"z.z.z.r.e.7.7.7.7.7.7.7.7.7.7.7.7.7.7.q.e.e.e.e.e.e.e.e.e.e.e.e.e.e.e.e.e.w.7.7.7.7.7.7.7.7.7.7.7.7.7.7.7.7.7.7.r.z.z.z.z.z.z.z.",
"z.z.r.r.7.7.7.7.7.7.7.7.7.7.7.7.7.7.7.w.e.e.e.e.w.e.e.e.e.e.e.e.e.e.e.e.e.e.7.7.7.7.7.7.7.7.7.7.7.7.7.7.7.7.0.7.0.r.r.z.z.z.z.z.",
"z.z.e.7.7.7.7.7.7.7.7.7.7.7.7.7.7.7.e.e.e.e.e.e.e.e.e.e.e.e.e.e.e.e.e.e.e.e.r.7.7.7.7.7.7.7.7.7.7.7.w.e.e.e.w.7.0.0.r.z.z.z.z.z.",
"z.e.7.7.7.7.7.7.7.7.7.7.7.7.7.7.7.w.e.e.e.e.e.e.e.e.e.e.e.e.e.e.e.e.e.e.e.e.e.e.7.7.7.7.7.7.7.7.7.w.w.e.e.e.e.w.7.7.7.e.z.z.z.z.",
"e.0.7.7.7.7.7.7.7.7.7.7.7.7.7.7.q.e.e.e.e.e.e.e.e.e.e.e.e.e.e.e.e.e.e.e.e.e.e.e.w.7.7.7.7.7.7.7.w.e.e.e.e.e.e.e.w.0.7.7.e.r.z.z.",
"7.7.7.7.w.w.r.r.r.w.w.7.7.7.7.7.w.e.e.e.e.e.e.e.e.e.e.e.e.e.e.e.e.e.e.e.e.e.e.e.e.7.7.7.7.7.7.w.e.e.e.e.e.e.e.e.e.w.7.7.7.0.e.0.",
"7.7.7.7.e.r.z.z.z.r.r.7.7.7.7.w.e.e.e.e.e.e.e.e.e.e.e.e.e.e.e.e.e.e.e.e.e.e.e.e.w.w.7.7.7.7.w.e.e.e.e.e.e.e.e.e.e.e.e.7.7.7.0.0."
};
