/* XPM */
static char *result[] = {
/* columns rows colors chars-per-pixel */
"64 64 223 2 ",
"   c gray20",
".  c #3E3433",
"X  c #3A3E3F",
"o  c #603935",
"O  c #6B3A35",
"+  c #694C39",
"@  c #4C4842",
"#  c #414849",
"$  c #4E595B",
"%  c #6A5243",
"&  c #6A574A",
"*  c #725540",
"=  c #7B5E48",
"-  c #5A6C47",
";  c #6B6158",
":  c #6D665E",
">  c #586668",
",  c #5C6C6E",
"<  c #6F726E",
"1  c #6F726F",
"2  c #7F7362",
"3  c #697C7E",
"4  c #697D7F",
"5  c #717C7B",
"6  c #813D36",
"7  c #BA4539",
"8  c #C5473A",
"9  c #D0483A",
"0  c #DB543F",
"q  c #E74C3C",
"w  c #85674F",
"e  c #8E7157",
"r  c #977A5E",
"t  c #AD744C",
"y  c #A17C4F",
"u  c #8A7562",
"i  c #BF6E6A",
"p  c #BC7876",
"a  c #BE7E7C",
"s  c #CF5C42",
"d  c #D75E56",
"f  c #D75F57",
"g  c #D3655E",
"h  c #EB6751",
"j  c #ED7159",
"k  c #CD6A65",
"l  c #C9756F",
"z  c #C17370",
"x  c #C37775",
"c  c #EE7A60",
"v  c #31AE65",
"b  c #33AF67",
"n  c #3CAC63",
"m  c #39AC68",
"M  c #3AAC69",
"N  c #28B162",
"B  c #28B262",
"V  c #29B765",
"C  c #29B966",
"Z  c #2ABB67",
"A  c #2ABC68",
"S  c #2BBE69",
"D  c #35B56B",
"F  c #4F8451",
"G  c #4B8C55",
"H  c #449C5C",
"J  c #76875D",
"K  c #7E9459",
"L  c #739C5D",
"P  c #40A45F",
"I  c #76807F",
"U  c #5CAC63",
"Y  c #4BA672",
"T  c #4DA775",
"R  c #50A475",
"E  c #59A07B",
"W  c #5DA27F",
"Q  c #58A87D",
"!  c #47B876",
"~  c #4FBC7D",
"^  c #52B77C",
"/  c #67A460",
"(  c #69AD67",
")  c #2BC06A",
"_  c #2BC16B",
"`  c #2CC36C",
"'  c #2CC56D",
"]  c #2CC66E",
"[  c #2DC86F",
"{  c #39C46D",
"}  c #2DCA70",
"|  c #2ECC71",
" . c #3FC676",
".. c #36C972",
"X. c #38CA74",
"o. c #3BCD75",
"O. c #46C279",
"+. c #4AC07B",
"@. c #4BC07C",
"#. c #48CE79",
"$. c #55CF7D",
"%. c #59CD7E",
"&. c #6DC97D",
"*. c #968453",
"=. c #998972",
"-. c #A18366",
";. c #AA8C6D",
":. c #B39969",
">. c #AF807F",
",. c #B49675",
"<. c #BD9F7C",
"1. c #8FA76C",
"2. c #9CA970",
"3. c #E59472",
"4. c #F49F7D",
"5. c #6C8083",
"6. c #74898B",
"7. c #73898C",
"8. c #728F8C",
"9. c #758C8E",
"0. c #758D8F",
"q. c #768D8F",
"w. c #689785",
"e. c #6C9487",
"r. c #659982",
"t. c #619C80",
"y. c #6C9689",
"u. c #6C9B89",
"i. c #6F9D8D",
"p. c #72918D",
"a. c #709E8E",
"s. c #768E90",
"d. c #778E90",
"f. c #778E91",
"g. c #778F91",
"h. c #788F91",
"j. c #788F92",
"k. c #789092",
"l. c #799093",
"z. c #799193",
"x. c #7A9194",
"c. c #7A9294",
"v. c #7A9295",
"b. c #7B9295",
"n. c #7B9396",
"m. c #7C9396",
"M. c #7C9497",
"N. c #7C9597",
"B. c #779993",
"V. c #769E93",
"C. c #7A9996",
"Z. c #7D9598",
"A. c #7D9698",
"S. c #7E9799",
"D. c #7F989B",
"F. c #5FA481",
"G. c #5EA982",
"H. c #5EB384",
"J. c #61A683",
"K. c #69A088",
"L. c #6CA48C",
"P. c #68AC8B",
"I. c #60B486",
"U. c #64B089",
"Y. c #65B78B",
"T. c #69B48F",
"R. c #69BB8F",
"E. c #72A090",
"W. c #74A293",
"Q. c #75A394",
"!. c #7DA19B",
"~. c #79A89A",
"^. c #5DC489",
"/. c #62D181",
"(. c #6FD285",
"). c #78CE9C",
"_. c #828C8E",
"`. c #8D8B8D",
"'. c #998B8D",
"]. c #879294",
"[. c #8E9590",
"{. c #80999C",
"}. c #819A9D",
"|. c #829B9E",
" X c #839C9F",
".X c #899C9A",
"XX c #909B93",
"oX c #959799",
"OX c #A48F90",
"+X c #A0A79D",
"@X c #849EA1",
"#X c #C6A884",
"$X c #D1B787",
"%X c #D0B18B",
"&X c #D9BB93",
"*X c #F6A885",
"=X c #F9BB93",
"-X c #C9BDA1",
";X c #89D48D",
":X c #96D691",
">X c #B0D899",
",X c #BDD99D",
"<X c #93D8B0",
"1X c #E2C49A",
"2X c #D9C7A4",
"3X c #CADBA1",
"4X c #D7DCA5",
"5X c #E5CAA1",
"6X c #ECCDA2",
"7X c #E7D0A9",
"8X c #E7D0AA",
"9X c #E4DDA9",
"0X c #F5D6A9",
"qX c #FDD6A9",
"wX c #F3D8AD",
"eX c #F9DCAE",
"rX c #FFE0B1",
"tX c #AEE1C4",
"yX c #BBE6CD",
"uX c #CAF2DB",
"iX c #E8ECEC",
"pX c #F4F6F6",
"aX c white",
/* pixels */
"9.9.9.N.@X@X@X@X@X@X@X}.0.9.9.d.Z.Z.Z.Z.Z.Z.Z.Z.Z.Z.Z.Z.Z.Z.Z.Z.Z.Z.Z.Z.Z.Z.Z.Z.Z.l.9.9.9.x.Z.Z.Z.Z.Z.Z.Z.Z.Z.Z.Z.Z.Z.n.9.9.9.9.",
"9.s.}.@X@X@X@X@X@X@X@X@X|.0.9.9.M.Z.Z.Z.Z.Z.Z.Z.Z.Z.Z.Z.Z.Z.Z.Z.Z.Z.Z.Z.Z.Z.Z.Z.Z.q.9.9.l.Z.Z.Z.Z.Z.Z.Z.Z.Z.Z.Z.Z.Z.Z.Z.c.9.9.9.",
"0.}.@X@X@X@X@X@X@X@X@X@X@X}.9.9.l.Z.Z.Z.Z.Z.Z.Z.Z.Z.Z.Z.Z.Z.Z.Z.Z.Z.Z.Z.Z.Z.Z.Z.b.9.9.q.M.Z.Z.Z.Z.Z.Z.Z.Z.Z.Z.Z.Z.Z.Z.Z.Z.f.9.9.",
"}.@X@X@X@X@X@X@X@X@X@X@X@X@XN.9.9.M.Z.Z.Z.Z.Z.Z.Z.Z.Z.Z.Z.Z.Z.Z.Z.Z.Z.Z.Z.Z.Z.Z.d.9.9.j.Z.Z.Z.Z.Z.Z.Z.Z.Z.Z.Z.Z.Z.Z.Z.Z.Z.c.9.9.",
"@X@X@X@X@X@X@X@X@X@X@X@X@X@X@Xk.9.d.Z.Z.Z.Z.Z.Z.Z.Z.Z.Z.Z.Z.Z.Z.Z.Z.Z.Z.Z.Z.Z.x.9.9.9.l.Z.Z.Z.Z.Z.Z.Z.Z.Z.Z.Z.Z.Z.Z.Z.Z.Z.b.9.}.",
"@X@X@X@X@X@X@X@X@X@X@X@X@X@X@X|.9.9.h.Z.Z.Z.Z.Z.Z.Z.Z.Z.Z.Z.Z.Z.Z.Z.Z.Z.Z.Z.b.9.9.9.9.q.Z.Z.Z.Z.Z.Z.Z.Z.Z.Z.Z.Z.Z.Z.Z.Z.Z.h.v.@X",
"@X@X@X@X@X@X@X@X@X@X@X@X@X@X@X@Xn.9.9.z.Z.Z.Z.Z.Z.Z.Z.Z.Z.Z.Z.Z.Z.Z.Z.Z.Z.b.9.9.9.9.9.9.z.Z.Z.Z.Z.Z.Z.Z.Z.Z.Z.Z.Z.Z.Z.Z.n.9.{.@X",
"@X@X@X@X@X@X@X@X@X@X@X@X@X@X@X@XN.9.9.9.x.Z.B.i.F.F.F.F.F.F.F.F.F.F.F.F.W E E W E.a.k.9.9.n.Z.Z.Z.Z.Z.Z.Z.Z.Z.Z.Z.Z.Z.m.q.9.S.@X",
"@X@X@X@X@X@X@X@X@X@X@X@X@X@X@X@Xn.9.8.r.R M N N N N N N N N N N N N N N N N N N N N b J.0.q.M.Z.Z.Z.Z.Z.Z.Z.Z.Z.Z.Z.M.q.9.9.k.@X",
"@X@X@X@X@X@X@X@X@X@X@X@X@X@X@X@Xy.R N N N N N N N N N N N N N N N N N N N N N N N N N N Q 0.q.m.Z.Z.Z.Z.Z.Z.Z.Z.Z.M.f.9.9.9.9.D.",
"|.@X@X@X@X@X@X@X@X@X@X@X@X@X!.T N N N N N N N N N N N N N N N N N N N N N N N N N N N N N V.9.q.n.Z.Z.Z.Z.Z.Z.Z.M.d.9.9.9.9.9.0.",
"g.@X@X@X@X@X@X@X@X@X@X@X@XQ.v N N N N N N N N N N N N N N N N N N N N N N N N N N N N N N G.S.9.9.n.Z.Z.Z.Z.Z.M.q.9.9.9.9.9.9.9.",
"9.v.@X@X@X@X@X@X@X@X@X@XL.N N N N N N N N N N N N N N N N N N N N N N N N N N N N N N D ^.R.@Xv.9.9.x.Z.Z.Z.n.q.9.q.x.b.b.b.j.9.",
"9.9.n.@X@X@X@X@X@X@X@XW.N N N N N N N N N N N N N N N N N N N N N N N N N N N N N ^.tXaXaXiX@XN.9.9.9.q.d.q.9.9.l.Z.Z.Z.Z.Z.Z.M.",
"m.q.9.S.@X@X@X@X@X@X|.m N N N N N N N N N N N N N N N N N N N N N N N N N N N N <XaXaXaXaXiX@Xs.9.9.9.9.9.9.9.z.Z.Z.Z.Z.Z.Z.Z.Z.",
"Z.M.q.9.A. X@X@X@XS.t.N N N N N N N N N N N N N N N N N N N N N N N N N N N N ).aXaXaXaXaXpXn.9.9.9.9.9.9.9.x.Z.Z.Z.Z.Z.Z.Z.Z.Z.",
"Z.Z.M.f.9.0.k.k.9.9.Y N N N N N N N N N N N N N N N N N N N N N N N N N N N ^.aXaXaXaXaXaXaX9.9.9.9.9.9.9.c.Z.Z.Z.Z.Z.Z.Z.Z.Z.Z.",
"Z.Z.Z.M.q.9.9.9.9.9.N N N N N N N N N N N N N N N N N N N N N N N N N N N N yXaXaXaXaXaXaXaX9.9.9.9.9.9.x.Z.Z.Z.Z.Z.Z.Z.Z.Z.Z.Z.",
"Z.Z.Z.Z.M.q.9.9.9.e.N N N N N N N N N N N N N N N N N N N N N N N N N N N N uXuXuXuXuXuXuXuXK.K.u.9.9.x.Z.Z.Z.Z.Z.Z.Z.Z.Z.Z.Z.Z.",
"Z.Z.Z.Z.Z.M.q.9.9.w.N N N N N N N N N N N N N N N N B V V A S _ ' ' | | | | | | | | | | | | | | | | ~ P.Z.Z.Z.Z.Z.Z.Z.Z.Z.Z.Z.Z.",
"Z.Z.Z.Z.Z.Z.M.q.9.w.N N N N N N N N N N N V Z ) ' } | | | | | | | | | | | | | | | | | | | | | | | | | |  .U.Z.Z.Z.Z.Z.Z.Z.Z.Z.Z.",
"Z.Z.Z.Z.Z.Z.Z.m.9.9.N N N N N N V Z ` [ | | | | | | | | | | | | | | | | | | | | | | | | | | | | | | | | | | Z.Z.Z.Z.Z.Z.Z.Z.Z.Z.",
"Z.Z.Z.Z.Z.Z.Z.Z.b.9.m N C S ] | | | | | | | | | | | | | | | | | | | | | | | | | | | | | | | | | | | | | | O.Z.Z.Z.Z.Z.Z.Z.Z.Z.Z.",
"Z.Z.Z.Z.Z.Z.Z.Z.Z.d.! [ | | | | | | | | | | | | | | | | | | | | | | | | | | | | | | | | | | ..+.@.@.@.I.I.C.Z.Z.Z.Z.Z.Z.Z.Z.Z.Z.",
"Z.Z.Z.Z.Z.Z.Z.Z.Z.x.^ | | | | | | | | | | | | | | | | | | | $./././.;X:X:X:X>X3X3X3X4XrXrX9.q.Z.Z.Z.Z.Z.Z.Z.Z.Z.Z.Z.Z.Z.Z.Z.Z.Z.",
"Z.Z.Z.Z.Z.Z.Z.Z.Z.b.p.H n n n n n P G G G F - - - J rXrXrXrXrXrXrXrXrXrXrXrXrXrXrXrXrXrXrX9.d.Z.Z.Z.Z.Z.Z.Z.Z.Z.Z.Z.Z.Z.Z.Z.Z.Z.",
"Z.Z.Z.Z.Z.Z.Z.Z.Z.c.9.+ + + + + + + + + + + + + + ;.rXrXrXrXrXrXrXrXrXrXrXrXrXrXrXrXrXrXrX9.q.Z.Z.Z.Z.Z.Z.Z.Z.Z.Z.Z.Z.Z.Z.Z.Z.Z.",
"Z.Z.Z.Z.Z.Z.Z.Z.Z.h.9.+ + + + + + + + + + + + + + 6XrXrXrXrXrXrX1X* + #XrXrXrXrXrXrXrXrXrX9.9.m.Z.Z.Z.Z.Z.Z.Z.Z.Z.Z.Z.Z.Z.Z.Z.Z.",
"Z.Z.Z.Z.Z.Z.Z.Z.n.9.9.+ + + + + + + w &XrXrXrX&X,.rXrXrXrXrXrXrXe + + = rXrXrXrXrXrXrXrXrX9.9.f.Z.Z.Z.Z.Z.Z.Z.Z.Z.Z.Z.Z.Z.Z.Z.Z.",
"Z.Z.Z.Z.Z.Z.Z.M.q.9.9.+ + + + + + * 6XrXrXrXrXrXrXrXrXrXrXrXrXrX+ + + + rXrXrXrXrXrXrXrXrX9.9.9.x.Z.Z.Z.Z.Z.Z.Z.Z.Z.Z.Z.Z.Z.Z.Z.",
"Z.Z.Z.Z.Z.Z.Z.f.9.9.9.& + + + + + &XrXrXrXrXrXrXrXrXrXrXrXrXrXrX+ + + + rXrXrXrXrXrXrXrXrXf.9.9.9.n.Z.Z.Z.Z.Z.Z.Z.Z.Z.Z.Z.Z.Z.Z.",
"Z.Z.Z.Z.Z.Z.h.9.9.9.9.; + + + + + rXrXrXrXrXrXrXrXrXrXrXrXrXrXrXr + + w rXrXrXrXrXrXrXrXrX7X2XXX9.9.n.Z.Z.Z.Z.Z.Z.Z.Z.Z.Z.Z.Z.Z.",
"Z.Z.Z.Z.Z.j.9.9.9.9.9.; + + + + + rXrXrXrXrXrXrXrXrXrXrXrXrXrXrX0X= + &XrXrXrXrXrXrXrXrXrXrXrX2X9.9.9.m.Z.Z.Z.Z.Z.Z.Z.Z.Z.Z.Z.Z.",
"Z.Z.Z.Z.x.9.9.9.9.9.9.< + + + + + #XrXrXrXrXrXrXrXrXrXrXrXrXrXrXrXrXrXrXrX6X<.r e e * r 1XrXrXrX9.9.9.q.M.Z.Z.Z.Z.Z.Z.Z.Z.Z.Z.Z.",
"Z.Z.Z.j.9.9.9.9.9.9.9.1 + + + + + * 6XrXrXrXrXrXrXrXrXrXrXrXrXrXrXrXrXrX%X+ + + + + + + = rXeX-X9.9.9.9.q.n.Z.Z.Z.Z.Z.Z.Z.Z.Z.Z.",
"Z.Z.h.9.9.9.9.9.9.9.c.I + + + * -.&XrXrXrXrXrXrXrXrXrXrXrXrXrXrXrXrXrX&X+ + + + + + + + + 5 9.9.9.9.9.9.9.9.n.Z.Z.Z.Z.Z.Z.Z.Z.Z.",
"M.f.9.9.9.9.9.9.9.x.Z.[.,.,.&XrXrXrXrXrXrXrXrXrXrXrXrXrXrXrXrXrXrXrXrX= + + + + + + + + + < 9.9.9.9.9.9.9.9.9.c.Z.Z.Z.Z.Z.Z.Z.Z.",
"q.9.9.9.9.9.9.9.l.Z.Z.+XrXrXrXrXrXrXrXrXrXrXrXrXrXrXrXrXrXrXrXrXrXrXrX* + + + + + + + + + < 9.z.D.{.{.N.0.9.9.9.x.Z.Z.Z.Z.Z.Z.M.",
"9.9.9.9.9.9.9.d.Z.Z.Z.Z.8XrXrXrXrXrXrXrXrXrXrXrXrXrXrXrXrXrXrXrXrXrXrX6X,.e + + + + + % : 6.v. X@X@X@X@X{.0.9.9.9.q.b.Z.Z.M.l.9.",
"9.9.9.9.9.9.q.M.Z.Z.Z.Z..XwXrXrXrXrXrXrXrXrXrXrXrXrXrXrXrXrXrXrXrXrXrXrXrXrXrXrXrXrX9X%.p.v.@X@X@X@X@X@X@X}.0.9.9.9.9.9.9.9.9.9.",
"9.9.9.9.9.9.b.Z.Z.Z.Z.Z.Z.l j j j j j &./././././././.:.j j j j 2./././././././././.o.| H.@X@X@X@X@X@X@X@X@X}.0.9.9.9.9.9.9.9.9.",
"9.9.9.9.9.j.Z.Z.Z.Z.Z.Z.].q q q q q y | | | | | | | | { q q q q 0 / | | | | | | | | | | X.@X@X@X@X@X@X@X@X@X@X}.0.9.9.9.9.9.9.9.",
"9.9.9.9.9.M.Z.Z.Z.Z.Z.Z.>.q q q q q L | | | o././.o.| | t q q q q q *.| | | | | | | | | | ~.@X@X@X@X@X@X@X@X@X@X}.0.9.9.9.9.9.9.",
"9.9.9.9.j.Z.Z.Z.Z.Z.Z.Z.z q q q q q U | (.3XrXrXrXrX,X#.K q q q q q q s L | | | | | | | | T.@X@X@X@X@X@X@X@X@X@X@X}.9.9.9.9.9.9.",
"9.9.9.9.l.Z.Z.Z.Z.Z.Z.Z.g q q q q q U :XrXrXrXrXrXrXrX9X( q q q q q q q q q t K U | | | | Y.@X@X@X@X@X@X@X@X@X@X@X@Xn.9.9.9.9.9.",
"9.9.9.9.h.Z.Z.Z.Z.Z.Z.Z.g q q q q q 1.rXrXrXrXrXrXrXrXrX$Xq q q q q q q q q q q q q q q q a @X@X@X@X@X@X@X@X@X@X@X@X|.9.9.9.9.9.",
"9.9.9.9.9.n.Z.Z.Z.Z.Z.Z.g q q q q q 3.rXrXrXrXrXrXrXrXrX=Xq q q q q q q q q q q q q q q q a @X@X@X@X@X@X@X@X@X@X@X@X@X9.9.9.9.9.",
"9.9.9.9.9.9.n.Z.Z.Z.Z.Z.g q q q q q *XrXrXrXrXrXrXrXrXrX*Xq q q q q q q q q q q q q q q q a @X@X@X@X@X@X@X@X@X@X@X@X{.9.9.9.9.9.",
"9.9.9.9.9.9.9.n.Z.Z.Z.Z.k q q q q q =XrXrXrXrXrXrXrXrXrXh q q q q q q q q q q q q q q q q a @X@X@X@X@X@X@X@X@X@X@X@Xk.9.9.9.9.9.",
"9.9.9.9.9.9.9.9.c.Z.Z.Z.p q q q q q 4.rXrXrXrXrXrXrXrXu o o 6 9 q q q q q q q q q q q q q OX@X@X@X@X@X@X@X@X@X@X@Xn.9.9.9.s.k.0.",
"v.9.9.9.9.9.9.9.9.f.M.Z.'.q q q q q h rXrXrXrXrXrXrX2           7 q q q q q q q q q q q q oX@X@X@X@X@X@X@X@X@X@XN.9.9.9.A.@X@X@X",
"@XA.9.9.9.9.9.9.9.9.q.n.Z.f q q q q q c qXrXrX5X=.@             . 8 q q q q q q q q q q x @X@X@X@X@X@X@X@X@X@XA.9.9.9.S.@X@X@X@X",
"@X@XS.9.9.9.9.9.9.9.9.9.h.`.d q q q q q q q .                     O q q q q q q q q q i _. X@X@X@X@X@X@X@X@XS.9.9.9.S.@X@X@X@X@X",
"@X@X@XS.9.9.9.9.9.9.9.9.9.9.9.9.9.9.9.9.9.4                         9.9.9.9.9.9.9.9.9.9.9.s.}.@X@X@X@X@X@Xn.9.9.9.S.@X@X@X@X@X@X",
"@X@X@X@XN.9.9.9.9.9.9.9.9.9.9.9.9.9.9.9.9.4                       X l.9.9.9.9.9.9.9.9.9.9.9.0.}.@X@X@X@Xv.9.9.9.N.@X@X@X@X@X@X@X",
"@X@X@X@X{.9.9.9.9.9.9.9.9.9.9.9.9.9.9.9.9.h.$                     3 Z.x.9.9.9.9.9.9.9.9.9.9.9.9.z.N.n.0.9.9.9.9.{.@X@X@X@X@X@X@X",
"@X@X@X@X{.9.9.9.9.9.9.9.9.9.9.9.9.9.9.9.h.Z.Z.5.> X         # , 7.Z.Z.Z.x.9.9.9.9.9.9.9.9.9.9.9.9.9.9.9.9.9.9.9.{.@X@X@X@X@X@X@X",
"@X@X@X@XN.9.9.9.9.9.9.9.9.9.9.9.9.9.9.h.Z.Z.Z.Z.Z.Z.Z.Z.Z.Z.Z.Z.Z.Z.Z.Z.Z.x.9.9.9.9.9.9.9.9.9.9.9.9.9.9.9.9.9.9.N.@X@X@X@X@X@X@X",
"@X@X@XS.9.9.9.9.9.9.9.9.9.9.9.9.9.9.q.M.Z.Z.Z.Z.Z.Z.Z.Z.Z.Z.Z.Z.Z.Z.Z.Z.Z.Z.h.9.9.9.9.9.9.9.9.9.9.9.9.9.9.9.9.9.9.S.@X@X@X@X@X@X",
"@X@XS.9.9.9.9.9.9.9.9.9.9.9.9.9.9.9.M.Z.Z.Z.Z.Z.Z.Z.Z.Z.Z.Z.Z.Z.Z.Z.Z.Z.Z.Z.Z.d.9.9.9.9.9.9.9.9.9.9.x.Z.Z.Z.b.q.9.9.S.@X@X@X@X@X",
"@Xn.9.9.9.9.9.9.9.9.9.9.9.9.9.9.9.b.Z.Z.Z.Z.Z.Z.Z.Z.Z.Z.Z.Z.Z.Z.Z.Z.Z.Z.Z.Z.Z.M.9.9.9.9.9.9.9.9.9.x.Z.Z.Z.Z.Z.n.9.9.9.A.@X@X@X@X",
"v.9.9.9.9.9.9.9.9.9.9.9.9.9.9.9.j.Z.Z.Z.Z.Z.Z.Z.Z.Z.Z.Z.Z.Z.Z.Z.Z.Z.Z.Z.Z.Z.Z.Z.c.9.9.9.9.9.9.9.b.Z.Z.Z.Z.Z.Z.Z.m.q.9.9.v.@X@X@X",
"9.9.9.9.9.k.S.{.{.N.s.9.9.9.9.9.m.Z.Z.Z.Z.Z.Z.Z.Z.Z.Z.Z.Z.Z.Z.Z.Z.Z.Z.Z.Z.Z.Z.Z.Z.q.9.9.9.9.9.n.Z.Z.Z.Z.Z.Z.Z.Z.Z.M.q.9.9.0.k.0.",
"9.9.9.9.z. X@X@X@X@X|.0.9.9.9.d.Z.Z.Z.Z.Z.Z.Z.Z.Z.Z.Z.Z.Z.Z.Z.Z.Z.Z.Z.Z.Z.Z.Z.Z.Z.l.9.9.9.9.c.Z.Z.Z.Z.Z.Z.Z.Z.Z.Z.Z.M.9.9.9.9.9."
};
